<?xml version="1.0" standalone="no"?> <!DOCTYPE svg PUBLIC "-//W3C//DTD SVG 1.0//EN" "http://www.w3.org/TR/2001/REC-SVG-20010904/DTD/svg10.dtd" > <svg xmlns="http://www.w3.org/2000/svg" width="100%" height="100%">
<defs >
<font id="helveticaneueltcomultlt" horiz-adv-x="395" ><font-face
    font-family="Helvetica Neue LT Com"
    units-per-em="1000"
    panose-1="2 11 3 3 2 2 2 2 2 4"
    ascent="714"
    descent="-286"
    alphabetic="0" />
<missing-glyph horiz-adv-x="512" d="M222 117V184H278V117H222ZM225 234L223 251Q223 306 236 332T282 391Q314 422 323 438T332 474Q332 510 310 534T256 559Q225 559 203 537T174 464L124 472Q131 543 168 576T259 609Q312 609 347 573T383 478Q383 446 371
420T320 358Q283 325 277 306T271 234H225ZM462 50V667H50V50H462ZM512 718V0H0V718H512Z" />
<glyph unicode=" " glyph-name="space" horiz-adv-x="278" />
<glyph unicode="!" glyph-name="exclam" horiz-adv-x="185" d="M83 182V714H103V182H83ZM83 0V98H103V0H83Z" />
<glyph unicode="&quot;" glyph-name="quotedbl" horiz-adv-x="278" d="M205 489H185V714H205V489ZM93 489H73V714H93V489Z" />
<glyph unicode="#" glyph-name="numbersign" horiz-adv-x="556" d="M185 249H356L380 426H209L185 249ZM245 680L214 446H385L416 680H436L405 446H521V426H400L376 249H493V229H372L341 0H321L352 229H180L149 0H129L160 229H35V249H165L189 426H63V446H194L225
680H245Z" />
<glyph unicode="$" glyph-name="dollar" horiz-adv-x="556" d="M285 3Q327 3 368 12T443 43T496 97T517 176Q517 227 496 258T441 307T366 336T285 355V3ZM26 237Q26 176 43 133T92 61T168 20T265 4V360Q222 370 180 381T103 411T48 463T27 547Q27 599 48 634T104
691T180 721T265 731V774H285V730Q335 729 377 717T451 679T501 613T523 514H503Q501 567 484 603T438 663T370 698T285 710V376L293 374Q343 361 387 350T465 318T517 264T537 175Q537 124 515 88T457 29T376 -6T285 -17V-105H265V-16Q208 -14 160 1T78 48T24
125T6 237H26ZM265 711Q227 711 189 703T119 676T67 626T47 547Q47 502 65 474T113 429T183 401T265 381V711Z" />
<glyph unicode="%" glyph-name="percent" horiz-adv-x="685" d="M564 714H587L111 -34H88L564 714ZM357 157Q357 195 367 226T396 281T444 317T509 330Q585 330 624 282T664 158Q664 123 654 93T624 39T575 2T509 -12Q470 -12 441 2T394 39T366 93T357 157ZM41
519Q41 489 49 462T73 414T115 382T173 370Q206 370 231 382T274 414T299 462T308 519Q308 588 275 630T173 672Q104 672 73 629T41 519ZM21 519Q21 557 31 588T60 643T108 679T173 692Q249 692 288 644T328 520Q328 485 318 455T288 401T239 364T173 350Q134 350
105 364T58 401T30 455T21 519ZM377 157Q377 127 385 100T409 52T451 20T509 8Q542 8 567 20T610 52T635 100T644 157Q644 226 611 268T509 310Q440 310 409 267T377 157Z" />
<glyph unicode="&amp;" glyph-name="ampersand" horiz-adv-x="574" d="M572 0H546L457 113Q427 58 376 21T248 -17Q210 -17 174 -5T109 30T62 86T44 160Q44 203 62 238T108 301T170 351T236 394Q221 415 203 437T169 483T141 531T130 581Q130 615 143 640T176
682T223 706T276 714Q306 714 332 705T379 679T410 637T422 581Q422 546 407 518T368 468T317 426T265 389L453 151Q463 173 471 205T477 277H497Q498 232 490 200T467 133L572 0ZM248 378Q218 359 186 338T126 292T82 234T64 160Q64 122 80 93T121 43T180 13T248
3Q320 3 368 39T444 132L248 378ZM150 583Q150 566 156 549T174 512T206 465T253 404Q274 419 300 436T348 476T386 524T402 581Q402 607 392 628T364 663T325 686T277 694Q251 694 228 687T188 665T160 630T150 583Z" />
<glyph unicode="&apos;" glyph-name="quotesingle" horiz-adv-x="167" d="M74 714H94V489H74V714Z" />
<glyph unicode="(" glyph-name="parenleft" horiz-adv-x="222" d="M204 731Q148 628 118 514T88 282Q88 161 117 45T205 -177H185Q156 -120 134 -66T98 44T76 158T68 282Q68 400 98 514T184 731H204Z" />
<glyph unicode=")" glyph-name="parenright" horiz-adv-x="222" d="M18 -177Q74 -74 104 40T134 272Q134 393 105 509T17 731H37Q66 674 88 620T124 510T146 395T154 272Q154 154 124 40T38 -177H18Z" />
<glyph unicode="*" glyph-name="asterisk" horiz-adv-x="352" d="M184 714V574L316 617L320 598L190 555L273 446L257 434L174 542L90 438L74 451L162 555L32 598L38 617L164 574V714H184Z" />
<glyph unicode="+" glyph-name="plus" horiz-adv-x="600" d="M290 506H310V263H552V243H310V0H290V243H48V263H290V506Z" />
<glyph unicode="," glyph-name="comma" horiz-adv-x="278" d="M149 98V0Q149 -45 140 -73T105 -119V-99Q118 -86 123 -64T129 0V98H149Z" />
<glyph unicode="-" glyph-name="hyphen" horiz-adv-x="333" d="M79 278H254V258H79V278Z" />
<glyph unicode="." glyph-name="period" horiz-adv-x="278" d="M149 0H129V98H149V0Z" />
<glyph unicode="/" glyph-name="slash" horiz-adv-x="333" d="M-7 -17L320 731H340L13 -17H-7Z" />
<glyph unicode="0" glyph-name="zero" horiz-adv-x="556" d="M535 340Q535 276 523 213T480 100T401 19T278 -12Q205 -12 156 19T76 100T34 213T21 340Q21 404 33 467T76 580T155 661T278 692Q351 692 400 661T480 580T522 467T535 340ZM515 340Q515 397 504 456T466
563T394 641T278 672Q208 672 163 642T90 563T52 456T41 340Q41 283 52 224T90 117T162 39T278 8Q348 8 393 38T466 117T504 224T515 340Z" />
<glyph unicode="1" glyph-name="one" horiz-adv-x="556" d="M298 654H296Q265 611 216 580T115 534V554Q146 564 170 576T215 603T255 637T296 680H318V0H298V654Z" />
<glyph unicode="2" glyph-name="two" horiz-adv-x="556" d="M513 20V0H55Q54 43 73 78T123 143T192 201T269 256Q308 283 345 310T411 369T457 434T475 509Q475 549 461 579T421 630T361 661T286 672Q233 672 195 656T133 612T98 544T87 457H67Q68 569 122 630T286
692Q329 692 367 681T434 646T478 589T495 509Q495 467 478 431T432 362T367 302T291 246T215 193T148 139T99 83T75 20H513Z" />
<glyph unicode="3" glyph-name="three" horiz-adv-x="556" d="M59 469Q58 524 74 566T121 636T194 678T291 692Q331 692 369 683T438 654T486 602T504 525Q504 489 493 461T463 413T416 382T358 367V365Q388 362 416 351T467 318T503 264T517 188Q517 141 499
104T449 41T375 2T287 -12Q229 -12 182 4T102 51T53 127T40 230H60Q56 176 71 135T116 65T190 23T287 8Q328 8 366 19T433 54T479 110T497 188Q497 231 483 262T442 314T380 344T302 356H253V376H302Q335 376 367 383T426 408T468 454T484 525Q483 566 466 594T422
639T361 664T291 672Q242 672 203 660T136 622T93 558T79 469H59Z" />
<glyph unicode="4" glyph-name="four" horiz-adv-x="556" d="M34 177V201L374 680H399V197H522V177H399V0H379V177H34ZM379 652H377L54 197H379V652Z" />
<glyph unicode="5" glyph-name="five" horiz-adv-x="556" d="M147 660L85 369H87Q116 416 164 438T273 461Q325 461 368 444T443 395T491 321T508 226Q508 172 491 128T443 53T369 5T273 -12Q220 -12 176 3T101 48T52 121T37 218H57Q55 168 70 129T113 63T182
22T273 8Q322 8 362 23T430 67T473 136T488 226Q488 273 473 312T429 380T361 425T273 441Q213 441 162 415T83 337H58L131 680H480V660H147Z" />
<glyph unicode="6" glyph-name="six" horiz-adv-x="556" d="M485 520Q475 566 454 595T405 642T349 665T294 672Q243 672 206 655T142 607T99 538T73 456T60 370T58 287H60Q67 323 87 354T137 408T204 445T282 458Q326 458 368 441T444 393T497 319T517 223Q517
172 498 129T447 55T372 6T282 -12Q247 -12 217 -3T161 22T117 56T84 95Q55 140 47 197T39 321Q39 384 51 450T92 570T171 658T295 692Q339 692 375 679T439 642T483 588T505 520H485ZM497 223Q497 268 480 307T434 375T366 421T282 438Q237 438 198 421T130 375T84
307T67 223Q67 178 84 139T130 71T198 25T282 8Q327 8 366 25T434 71T480 139T497 223Z" />
<glyph unicode="7" glyph-name="seven" horiz-adv-x="556" d="M61 660V680H495V653Q426 584 369 511T272 359T210 191T188 0H168Q167 100 188 190T250 361T347 517T473 660H61Z" />
<glyph unicode="8" glyph-name="eight" horiz-adv-x="556" d="M471 520Q471 563 455 592T411 639T350 664T278 672Q241 672 207 665T145 640T102 593T85 520Q85 484 102 458T147 415T209 390T278 382Q312 382 346 390T408 414T453 457T471 520ZM351 373Q432 365
478 317T525 190Q525 137 505 99T452 36T373 0T278 -12Q228 -12 183 -1T105 36T51 99T31 190Q31 268 77 316T205 373V375Q176 379 151 391T106 422T76 466T65 520Q65 566 81 598T127 652T195 682T278 692Q322 692 361 683T429 652T474 599T491 520Q491 491 480
466T450 422T406 391T351 375V373ZM505 190Q505 239 486 272T436 325T363 353T278 362Q234 362 193 354T121 325T70 272T51 190Q51 141 69 107T119 50T192 18T278 8Q323 8 364 18T436 50T486 106T505 190Z" />
<glyph unicode="9" glyph-name="nine" horiz-adv-x="556" d="M489 457Q489 502 472 541T426 609T358 655T274 672Q229 672 190 655T122 609T76 541T59 457Q59 412 76 373T122 305T190 259T274 242Q319 242 358 259T426 305T472 373T489 457ZM71 160Q81 114 102
85T151 38T207 15T262 8Q338 8 385 46T457 142T491 267T498 393H496Q488 357 468 326T419 272T352 235T274 222Q230 222 188 239T112 287T59 361T39 457Q39 508 58 551T109 625T184 674T274 692Q309 692 339 683T395 658T439 624T472 585Q502 540 510 483T518 359Q518
296 506 230T465 110T386 22T261 -12Q217 -12 181 1T117 38T73 92T51 160H71Z" />
<glyph unicode=":" glyph-name="colon" horiz-adv-x="278" d="M129 416V514H149V416H129ZM129 0V98H149V0H129Z" />
<glyph unicode=";" glyph-name="semicolon" horiz-adv-x="278" d="M129 416V514H149V416H129ZM149 0Q149 -45 140 -73T105 -119V-99Q118 -86 123 -64T129 0V98H149V0Z" />
<glyph unicode="&lt;" glyph-name="less" horiz-adv-x="600" d="M554 -8L46 241V265L554 514V493L64 253L554 13V-8Z" />
<glyph unicode="=" glyph-name="equal" horiz-adv-x="600" d="M48 146V166H552V146H48ZM48 340V360H552V340H48Z" />
<glyph unicode="&gt;" glyph-name="greater" horiz-adv-x="600" d="M536 253L46 493V514L554 265V241L46 -8V13L536 253Z" />
<glyph unicode="?" glyph-name="question" horiz-adv-x="500" d="M232 0V98H252V0H232ZM35 493Q33 545 47 589T89 664T158 713T252 731Q293 731 329 720T391 688T433 636T449 565Q449 527 439 499T413 449T380 412T351 386Q324 360 305 339T275 295T258 245T252
182H232Q232 216 237 243T253 294T283 343T330 394Q336 400 352 413T385 447T416 497T429 565Q429 600 416 627T379 673T323 701T252 711Q202 711 165 695T102 651T65 582T55 493H35Z" />
<glyph unicode="@" glyph-name="at" horiz-adv-x="800" d="M594 547H615L504 259Q495 237 491 218T487 184T499 161T529 152Q560 152 594 172T656 226T704 308T723 411Q723 473 700 525T637 614T540 671T419 692Q346 692 284 666T175 593T103 485T77 353Q77 268
104 204T179 96T288 30T419 8Q465 8 507 20T586 53T655 104T709 166H732Q708 126 673 93T597 37T511 1T419 -12Q352 -12 287 9T171 75T89 189T57 353Q57 431 85 496T163 610T279 685T419 712Q486 712 545 691T648 631T717 536T743 411Q743 353 723 303T672 214T602
154T527 132Q498 132 481 149T468 195H466Q438 157 402 145T330 132Q301 132 276 143T233 174T205 220T194 277Q194 323 211 374T259 468T334 538T431 566Q478 566 516 544T568 481H570L594 547ZM559 456Q552 482 538 499T505 526T467 541T427 546Q380 546 341
520T273 453T230 366T214 277Q214 250 223 228T248 188T286 162T334 152Q354 152 375 157T417 175T455 212T488 272L559 456Z" />
<glyph unicode="A" glyph-name="A" horiz-adv-x="575" d="M106 235L11 0H-12L278 714H304L586 0H564L470 235H106ZM462 255L292 694H290L114 255H462Z" />
<glyph unicode="B" glyph-name="B" horiz-adv-x="611" d="M67 382H354Q390 382 422 391T480 420T520 469T535 536Q535 576 521 606T483 655T425 684T354 694H67V382ZM47 714H354Q396 714 432 703T496 670T539 614T555 536Q555 504 544 475T512 425T465 389T404
373V371Q439 370 470 358T525 323T563 268T577 194Q577 146 560 110T511 49T437 13T342 0H47V714ZM67 20H351Q394 20 432 30T497 62T541 116T557 193Q557 240 540 272T494 324T429 353T354 362H67V20Z" />
<glyph unicode="C" glyph-name="C" horiz-adv-x="685" d="M662 280Q653 215 628 161T564 67T470 5T348 -17Q277 -17 218 10T115 87T49 203T25 351Q25 416 43 483T102 606T206 696T361 731Q432 731 485 708T573 649T627 573T646 500H626Q623 539 603 576T549 644T467
692T361 711Q302 711 256 695T175 651T115 587T75 510T52 429T45 351Q45 283 65 220T124 109T219 32T348 3Q412 3 463 24T551 82T611 170T642 280H662Z" />
<glyph unicode="D" glyph-name="D" horiz-adv-x="648" d="M74 20H278Q341 20 397 40T496 102T563 207T588 357Q588 457 563 522T497 625T405 679T299 694H74V20ZM54 714H304Q357 714 411 698T509 641T580 531T608 357Q608 261 580 193T505 83T398 20T273 0H54V714Z" />
<glyph unicode="E" glyph-name="E" horiz-adv-x="537" d="M74 20H532V0H54V714H528V694H74V382H501V362H74V20Z" />
<glyph unicode="F" glyph-name="F" horiz-adv-x="481" d="M74 382H454V362H74V0H54V714H494V694H74V382Z" />
<glyph unicode="G" glyph-name="G" horiz-adv-x="722" d="M377 314V334H674V-1H654V177H652Q638 132 612 96T548 35T465 -3T367 -17Q284 -17 222 12T117 93T54 212T32 357Q32 435 55 503T121 622T226 702T367 731Q427 731 477 714T566 666T629 590T663 491H643Q634
541 611 581T552 651T469 695T367 711Q292 711 234 683T135 607T73 495T52 357Q52 284 72 220T132 107T231 31T370 3Q429 3 481 23T571 80T632 167T654 277V314H377Z" />
<glyph unicode="H" glyph-name="H" horiz-adv-x="648" d="M74 362V0H54V714H74V382H574V714H594V0H574V362H74Z" />
<glyph unicode="I" glyph-name="I" horiz-adv-x="128" d="M54 714H74V0H54V714Z" />
<glyph unicode="J" glyph-name="J" horiz-adv-x="463" d="M384 714H404V186Q404 141 394 104T360 40T300 -2T208 -17Q157 -17 121 -2T62 39T29 100T18 178V221H38V178Q38 90 81 47T208 3Q251 3 283 13T338 46T372 107T384 201V714Z" />
<glyph unicode="K" glyph-name="K" horiz-adv-x="593" d="M74 253V0H54V714H74V280L569 714H599L254 410L619 0H592L238 398L74 253Z" />
<glyph unicode="L" glyph-name="L" horiz-adv-x="481" d="M491 20V0H54V714H74V20H491Z" />
<glyph unicode="M" glyph-name="M" horiz-adv-x="780" d="M693 714H726V0H706V689H704L401 0H379L76 689H74V0H54V714H87L389 26H391L693 714Z" />
<glyph unicode="N" glyph-name="N" horiz-adv-x="648" d="M54 714H84L572 25H574V714H594V0H564L76 689H74V0H54V714Z" />
<glyph unicode="O" glyph-name="O" horiz-adv-x="721" d="M32 357Q32 433 53 501T116 620T219 701T361 731Q441 731 502 701T605 620T668 501T690 357Q690 281 669 213T606 94T503 13T361 -17Q281 -17 220 13T117 94T54 213T32 357ZM52 357Q53 280 74 215T135
103T232 30T361 3Q433 3 490 29T586 103T647 215T670 357Q669 434 648 499T587 611T490 684T361 711Q289 711 232 685T135 611T74 499T52 357Z" />
<glyph unicode="P" glyph-name="P" horiz-adv-x="574" d="M74 0H54V714H343Q446 714 503 665T560 519Q560 472 543 436T496 375T424 338T333 325H74V0ZM74 345H343Q385 345 421 356T483 390T525 445T540 519Q540 604 491 649T343 694H74V345Z" />
<glyph unicode="Q" glyph-name="Q" horiz-adv-x="721" d="M571 58Q531 23 479 3T361 -17Q281 -17 220 13T117 94T54 213T32 357Q32 433 53 501T116 620T219 701T361 731Q441 731 502 701T605 620T668 501T690 357Q690 272 664 198T584 71L699 -8L689 -22L571 58ZM427
156L438 172L567 83Q616 130 642 200T670 357Q669 434 648 499T587 611T490 684T361 711Q289 711 232 685T135 611T74 499T52 357Q53 280 74 215T135 103T232 30T361 3Q419 3 467 20T553 70L427 156Z" />
<glyph unicode="R" glyph-name="R" horiz-adv-x="611" d="M74 0H54V714H346Q457 714 509 669T564 531Q566 460 526 412T411 347V345Q456 339 484 324T527 283T547 224T552 147Q552 131 553 109T556 65T561 25T569 0H547Q542 11 540 29T535 69T533 111T532 150Q532
194 526 228T499 286T442 322T343 335H74V0ZM74 355H341Q380 355 417 365T482 397T527 452T544 533Q543 609 498 651T351 694H74V355Z" />
<glyph unicode="S" glyph-name="S" horiz-adv-x="611" d="M531 514Q529 569 511 606T462 667T389 700T299 711Q261 711 222 704T150 677T96 627T75 547Q75 499 96 470T152 423T231 395T321 374Q371 361 415 350T493 318T545 264T565 175Q565 124 543 88T485 29T404
-6T313 -17Q252 -17 201 -3T112 42T54 121T34 237H54Q54 173 73 129T126 56T208 16T313 3Q355 3 396 12T471 43T524 97T545 176Q545 230 522 261T462 311T381 339T295 359Q251 369 209 380T132 410T76 462T55 547Q55 600 77 635T134 692T212 722T299 731Q351 731
396 720T474 683T528 616T551 514H531Z" />
<glyph unicode="T" glyph-name="T" horiz-adv-x="500" d="M-17 694V714H517V694H260V0H240V694H-17Z" />
<glyph unicode="U" glyph-name="U" horiz-adv-x="632" d="M558 714H578V266Q578 123 511 53T316 -17Q189 -17 122 53T54 266V714H74V266Q74 138 133 71T316 3Q439 3 498 70T558 266V714Z" />
<glyph unicode="V" glyph-name="V" horiz-adv-x="538" d="M536 714H556L284 0H262L-18 714H2L272 26H274L536 714Z" />
<glyph unicode="W" glyph-name="W" horiz-adv-x="870" d="M860 714H880L673 0H646L436 689H434L228 0H201L-10 714H11L213 25H215L421 714H450L659 25H661L860 714Z" />
<glyph unicode="X" glyph-name="X" horiz-adv-x="520" d="M510 714H535L275 367L547 0H522L261 351L-2 0H-27L248 367L-12 714H14L261 383L510 714Z" />
<glyph unicode="Y" glyph-name="Y" horiz-adv-x="538" d="M544 714H568L279 301V0H259V301L-30 714H-5L269 322L544 714Z" />
<glyph unicode="Z" glyph-name="Z" horiz-adv-x="500" d="M508 20V0H-19V27L480 694H9V714H500V687L1 20H508Z" />
<glyph unicode="[" glyph-name="bracketleft" horiz-adv-x="222" d="M209 731V711H116V-157H209V-177H96V731H209Z" />
<glyph unicode="\" glyph-name="backslash" horiz-adv-x="333" d="M320 -17L-7 731H13L340 -17H320Z" />
<glyph unicode="]" glyph-name="bracketright" horiz-adv-x="222" d="M13 -177V-157H106V711H13V731H126V-177H13Z" />
<glyph unicode="^" glyph-name="asciicircum" horiz-adv-x="600" d="M541 227H521L300 660L79 227H59L290 680H310L541 227Z" />
<glyph unicode="_" glyph-name="underscore" horiz-adv-x="500" d="M0 -125V-75H500V-125H0Z" />
<glyph unicode="`" glyph-name="grave" horiz-adv-x="130" d="M-38 732H-9L116 588H101L-38 732Z" />
<glyph unicode="a" glyph-name="a" horiz-adv-x="481" d="M54 355Q56 391 69 422T106 477T166 513T250 526Q284 526 314 519T368 495T405 449T420 379V52Q420 37 426 30T442 21T463 18T485 20V0Q470 -1 455 -1Q440 -1 428 4T408 19T400 50V117H398Q390 92 373
69T329 28T268 -1T194 -12Q117 -12 70 23T22 127Q22 175 37 204T78 249T135 272T199 281Q252 284 290 286T352 296T388 319T400 364Q400 387 396 412T377 458T331 492T250 506Q169 506 124 467T74 355H54ZM400 302H398Q388 287 367 280T319 270T261 265T199 261Q169
259 141 253T90 233T55 194T42 127Q42 105 49 84T75 46T121 19T192 8Q242 8 281 25T346 69T386 133T400 207V302Z" />
<glyph unicode="b" glyph-name="b" horiz-adv-x="537" d="M75 370H77Q95 440 148 483T283 526Q336 526 377 504T445 445T487 359T502 256Q502 198 487 149T444 64T375 8T283 -12Q244 -12 211 -1T151 32T106 81T77 144H75V0H55V714H75V370ZM75 256Q75 206 89 161T129
82T194 28T283 8Q333 8 370 28T432 82T469 161T482 256Q482 301 471 345T435 425T374 483T283 506Q236 506 198 490T132 441T90 363T75 256Z" />
<glyph unicode="c" glyph-name="c" horiz-adv-x="500" d="M469 175Q465 132 448 98T404 39T339 1T259 -12Q204 -12 162 8T90 64T46 146T31 246Q31 302 45 352T89 441T164 503T271 526Q307 526 340 515T399 483T442 431T465 358H445Q439 395 423 423T384 469T332
497T271 506Q209 506 167 483T100 422T63 338T51 246Q51 199 64 156T104 80T169 28T259 8Q297 8 330 19T388 53T430 105T449 175H469Z" />
<glyph unicode="d" glyph-name="d" horiz-adv-x="537" d="M455 714H475V0H455V144H453Q443 110 425 82T380 32T320 0T247 -12Q196 -12 156 8T87 64T43 149T28 256Q28 310 42 359T84 445T153 504T247 526Q329 526 382 483T453 370H455V714ZM455 256Q455 316 440
362T398 441T333 489T247 506Q194 506 157 484T95 426T60 346T48 256Q48 206 60 162T97 83T159 28T247 8Q296 8 335 28T400 82T441 161T455 256Z" />
<glyph unicode="e" glyph-name="e" horiz-adv-x="500" d="M45 253Q46 201 57 157T92 79T155 27T248 8Q328 8 382 51T449 178H469Q464 134 446 99T398 39T332 1T250 -12Q190 -13 148 7T78 64T38 150T25 257Q25 321 44 371T94 455T165 508T250 526Q310 526 353 503T424
442T464 355T475 253H45ZM455 273Q455 320 442 362T404 437T340 487T252 506Q210 506 174 490T110 444T65 370T45 273H455Z" />
<glyph unicode="f" glyph-name="f" horiz-adv-x="204" d="M-1 494V514H87V628Q87 659 96 676T121 701T154 712T188 714Q202 714 212 713T231 710V690Q217 692 206 693T184 694Q136 694 122 677T107 621V514H218V494H107V0H87V494H-1Z" />
<glyph unicode="g" glyph-name="g" horiz-adv-x="519" d="M446 172H444Q436 138 416 111T368 66T308 38T242 28Q188 28 148 48T82 101T42 179T28 274Q28 326 42 371T84 451T153 506T249 526Q286 526 318 515T375 483T418 436T444 377H446V514H466V17Q466 -89 410
-139T252 -189Q213 -189 178 -180T116 -152T73 -101T56 -27H76Q77 -65 91 -92T130 -136T185 -161T251 -169Q345 -169 395 -124T446 17V172ZM445 274Q445 318 433 360T396 434T334 486T249 506Q199 506 162 488T99 437T61 363T48 274Q48 226 60 185T97 114T158 66T241
48Q290 48 328 66T392 114T431 186T445 274Z" />
<glyph unicode="h" glyph-name="h" horiz-adv-x="500" d="M55 714H75V387H77Q84 417 99 442T138 486T193 515T262 526Q302 526 335 514T393 479T431 421T445 341V0H425V338Q425 383 412 414T377 466T325 496T262 506Q216 506 181 489T123 442T87 373T75 291V0H55V714Z" />
<glyph unicode="i" glyph-name="i" horiz-adv-x="130" d="M75 613H55V714H75V613ZM75 0H55V514H75V0Z" />
<glyph unicode="j" glyph-name="j" horiz-adv-x="130" d="M75 613H55V714H75V613ZM75 -75Q75 -111 67 -131T43 -161T4 -174T-49 -177V-157Q-20 -157 0 -155T32 -145T49 -118T55 -68V514H75V-75Z" />
<glyph unicode="k" glyph-name="k" horiz-adv-x="444" d="M75 194V0H55V714H75V219L430 514H459L223 318L476 0H449L208 304L75 194Z" />
<glyph unicode="l" glyph-name="l" horiz-adv-x="130" d="M55 714H75V0H55V714Z" />
<glyph unicode="m" glyph-name="m" horiz-adv-x="778" d="M55 514H75V387H77Q84 417 99 442T136 486T184 515T241 526Q301 528 341 496T395 406H397Q412 460 456 493T560 526Q606 526 637 512T688 474T715 415T723 338V0H703V338Q703 376 697 407T674 460T630
494T560 506Q522 506 493 492T442 452T410 395T399 326V0H379V330Q379 366 374 398T353 454T311 492T241 506Q203 506 172 489T120 442T87 373T75 291V0H55V514Z" />
<glyph unicode="n" glyph-name="n" horiz-adv-x="500" d="M55 514H75V387H77Q84 417 99 442T138 486T193 515T262 526Q302 526 335 514T393 479T431 421T445 341V0H425V338Q425 383 412 414T377 466T325 496T262 506Q216 506 181 489T123 442T87 373T75 291V0H55V514Z" />
<glyph unicode="o" glyph-name="o" horiz-adv-x="519" d="M48 257Q48 208 61 163T102 84T168 29T260 8Q311 8 350 28T417 83T457 163T471 257Q471 305 458 350T417 429T351 485T260 506Q208 506 169 485T102 430T62 350T48 257ZM28 257Q28 309 43 358T87 444T160
503T260 526Q316 526 359 504T431 444T476 358T491 257Q491 204 476 156T432 70T359 10T259 -12Q203 -12 160 10T87 69T43 155T28 257Z" />
<glyph unicode="p" glyph-name="p" horiz-adv-x="537" d="M75 -177H55V514H75V370H77Q87 404 105 432T150 482T210 514T283 526Q334 526 374 506T443 450T487 365T502 258Q502 204 488 155T446 69T377 10T283 -12Q201 -12 148 31T77 144H75V-177ZM283 8Q336 8
373 30T435 88T470 168T482 258Q482 307 470 352T433 431T371 486T283 506Q233 506 195 486T130 432T89 353T75 258Q75 198 90 152T132 73T197 25T283 8Z" />
<glyph unicode="q" glyph-name="q" horiz-adv-x="537" d="M455 258Q455 308 441 353T401 432T335 486T247 506Q197 506 160 486T98 432T61 352T48 258Q48 213 59 169T95 89T156 31T247 8Q294 8 332 24T398 73T440 151T455 258ZM455 514H475V-177H455V144H453Q435
74 382 31T247 -12Q194 -12 153 10T84 69T42 155T28 258Q28 316 43 365T86 450T155 506T247 526Q286 526 319 515T379 482T424 433T453 370H455V514Z" />
<glyph unicode="r" glyph-name="r" horiz-adv-x="259" d="M75 0H55V514H75V387H77Q84 415 99 441T139 486T198 516T279 526V506Q226 509 188 492T124 444T87 373T75 291V0Z" />
<glyph unicode="s" glyph-name="s" horiz-adv-x="463" d="M390 362Q390 401 378 428T344 472T292 498T224 506Q170 506 139 492T93 458T74 422T70 397Q70 359 85 339T127 307Q154 296 185 288T259 269Q289 261 318 253T371 229T409 191T424 131Q424 92 408 65T365
21T305 -4T238 -12Q136 -12 83 33T30 176H50Q50 90 99 49T238 8Q266 8 295 14T349 35T388 73T404 129Q404 163 389 184T349 218T292 240T227 256Q190 265 162 273T112 291Q80 305 65 330T50 397Q50 418 59 441T89 483T143 514T224 526Q310 526 360 487T410 362H390Z"
/>
<glyph unicode="t" glyph-name="t" horiz-adv-x="241" d="M110 494V100Q110 71 116 55T133 31T155 22T179 20Q194 20 206 20T223 23V3Q214 2 206 1T174 0Q139 0 115 20T90 96V494H-5V514H90V676H110V514H226V494H110Z" />
<glyph unicode="u" glyph-name="u" horiz-adv-x="500" d="M445 0H425V127H423Q416 97 401 72T362 28T307 -1T238 -12Q198 -12 165 0T107 35T69 93T55 173V514H75V176Q75 131 88 100T123 48T175 18T238 8Q284 8 319 25T377 72T413 141T425 223V514H445V0Z" />
<glyph unicode="v" glyph-name="v" horiz-adv-x="407" d="M397 514H419L225 0H200L-12 514H12L211 20H213L397 514Z" />
<glyph unicode="w" glyph-name="w" horiz-adv-x="685" d="M673 514H693L529 0H503L343 494H341L180 0H152L-8 514H12L165 20H167L326 514H357L515 20H517L673 514Z" />
<glyph unicode="x" glyph-name="x" horiz-adv-x="407" d="M380 514H404L216 266L422 0H397L203 251L10 0H-15L191 266L4 514H30L203 281L380 514Z" />
<glyph unicode="y" glyph-name="y" horiz-adv-x="407" d="M398 514H419L182 -105Q172 -131 158 -145T127 -167T90 -175T46 -177V-157Q71 -157 90 -156T122 -148T146 -128T166 -91L203 5L-12 514H10L214 27L398 514Z" />
<glyph unicode="z" glyph-name="z" horiz-adv-x="407" d="M402 20V0H5V25L365 494H32V514H386V489L26 20H402Z" />
<glyph unicode="{" glyph-name="braceleft" horiz-adv-x="333" d="M230 -177Q188 -177 173 -150T157 -66V97Q157 158 143 199T85 270V290Q101 293 114 308T137 346T152 398T157 457V622Q157 679 172 705T230 731H280V711H232Q202 711 190 689T177 604V440Q177
418 173 393T160 345T138 304T105 278Q138 262 157 217T177 114V-48Q177 -81 180 -102T190 -136T207 -152T232 -157H280V-177H230Z" />
<glyph unicode="|" glyph-name="bar" horiz-adv-x="222" d="M101 -214V786H121V-214H101Z" />
<glyph unicode="}" glyph-name="braceright" horiz-adv-x="333" d="M103 731Q145 731 160 704T176 620V457Q176 396 190 354T248 284V264Q232 261 219 246T196 208T181 156T176 97V-68Q176 -125 161 -151T103 -177H53V-157H101Q131 -157 143 -135T156 -50V114Q156
136 160 161T173 209T195 250T228 276Q195 292 176 337T156 440V602Q156 635 153 656T143 690T126 706T101 711H53V731H103Z" />
<glyph unicode="~" glyph-name="asciitilde" horiz-adv-x="600" d="M523 295Q513 279 502 264T478 236T449 217T414 209Q389 209 366 219T317 241Q291 253 263 265T195 278Q161 278 138 258T97 205L77 211Q96 246 124 272T195 298Q222 300 252 289T312 264Q342
251 368 240T415 229Q430 229 442 235T465 252T485 275T503 301L523 295Z" />
</font>
</defs>
</svg>
